<svg xmlns="http://www.w3.org/2000/svg" width="61.091" height="38.56" viewBox="0 0 61.091 38.56">
  <g id="businessmen-svgrepo-com" transform="translate(-135.482 -14.35)">
    <g id="Group_178978" data-name="Group 178978" transform="translate(135.482 14.35)">
      <path id="Path_41025" data-name="Path 41025" d="M225.627,71.578a7.514,7.514,0,1,0-.056-15.028h-.335a5.977,5.977,0,0,1,.39,2.007,5.468,5.468,0,0,1-5.493,5.493,6.124,6.124,0,0,1-2.035-.362v.362A7.445,7.445,0,0,0,225.627,71.578Z" transform="translate(-195.065 -44.784)" fill="#fff"/>
      <path id="Path_41026" data-name="Path 41026" d="M138.331,38.216A59.413,59.413,0,0,0,152.16,48.951a29.562,29.562,0,0,0,12.881,3.931c.335.028.641.028.976.028s.641,0,.976-.028a29.562,29.562,0,0,0,12.881-3.931A58.674,58.674,0,0,0,193.7,38.216c1.45-1.478,2.007-2.091,2.007-2.091a3.557,3.557,0,0,0-.139-4.8,107.256,107.256,0,0,0-9.926-8.866,46.068,46.068,0,0,0-12.24-6.775,23.339,23.339,0,0,0-7.389-1.338,22.584,22.584,0,0,0-7.389,1.338,45.383,45.383,0,0,0-12.24,6.775,107.257,107.257,0,0,0-9.926,8.866,3.616,3.616,0,0,0-.139,4.8S136.881,36.739,138.331,38.216Zm27.686-17.732a13.16,13.16,0,1,1-13.16,13.16A13.148,13.148,0,0,1,166.017,20.484Z" transform="translate(-135.482 -14.35)" fill="#fff"/>
    </g>
  </g>
</svg>
