<svg xmlns="http://www.w3.org/2000/svg" width="50.912" height="35.002" viewBox="0 0 50.912 35.002">
  <g id="email" transform="translate(0 -80)">
    <g id="Group_178980" data-name="Group 178980" transform="translate(33.748 86.453)">
      <g id="Group_178979" data-name="Group 178979">
        <path id="Path_41027" data-name="Path 41027" d="M339.392,156.2l17.164,10.851V144.9Z" transform="translate(-339.392 -144.896)" fill="#75b72a"/>
      </g>
    </g>
    <g id="Group_178982" data-name="Group 178982" transform="translate(0 86.453)">
      <g id="Group_178981" data-name="Group 178981">
        <path id="Path_41028" data-name="Path 41028" d="M0,144.9v22.159L17.164,156.2Z" transform="translate(0 -144.896)" fill="#75b72a"/>
      </g>
    </g>
    <g id="Group_178984" data-name="Group 178984" transform="translate(0.095 80)">
      <g id="Group_178983" data-name="Group 178983">
        <path id="Path_41029" data-name="Path 41029" d="M48.594,80H4.047A3.143,3.143,0,0,0,.96,82.708L26.32,99.416l25.36-16.709A3.142,3.142,0,0,0,48.594,80Z" transform="translate(-0.96 -80)" fill="#75b72a"/>
      </g>
    </g>
    <g id="Group_178986" data-name="Group 178986" transform="translate(0.102 99.681)">
      <g id="Group_178985" data-name="Group 178985">
        <path id="Path_41030" data-name="Path 41030" d="M31.756,277.923l-4.5,2.966a1.6,1.6,0,0,1-1.75,0L21,277.92,1.024,290.556a3.137,3.137,0,0,0,3.08,2.686H48.652a3.137,3.137,0,0,0,3.08-2.686Z" transform="translate(-1.024 -277.92)" fill="#75b72a"/>
      </g>
    </g>
  </g>
</svg>
