<svg id="SvgjsG1014" xmlns="http://www.w3.org/2000/svg" width="29.344" height="29.344" viewBox="0 0 29.344 29.344">
  <g id="Ebene_1" data-name="Ebene 1">
    <path id="Path_12054" data-name="Path 12054" d="M29.344,14.672A14.672,14.672,0,1,0,12.38,29.166V18.913H8.654V14.672H12.38V11.44c0-3.677,2.19-5.708,5.542-5.708a22.563,22.563,0,0,1,3.284.287V9.629h-1.85a2.121,2.121,0,0,0-2.391,2.291v2.752h4.069l-.651,4.241H16.965V29.166A14.676,14.676,0,0,0,29.344,14.672Z" fill="#1877f2"/>
    <path id="Path_12055" data-name="Path 12055" d="M313.729,213.182l.651-4.241H310.31v-2.752A2.121,2.121,0,0,1,312.7,203.9h1.85v-3.611a22.563,22.563,0,0,0-3.284-.287c-3.351,0-5.542,2.031-5.542,5.708v3.232H302v4.241h3.725v10.253a14.826,14.826,0,0,0,4.585,0V213.182Z" transform="translate(-293.346 -194.269)" fill="#fff"/>
  </g>
</svg>
