<svg id="search" xmlns="http://www.w3.org/2000/svg" width="29.344" height="29.344" viewBox="0 0 29.344 29.344">
  <path id="Path_12045" data-name="Path 12045" d="M6.5,148.077,5.482,151.89l-3.733.079a14.7,14.7,0,0,1-.108-13.7h0l3.324.609,1.456,3.3a8.756,8.756,0,0,0,.082,5.9Z" transform="translate(0 -130.343)" fill="#fbbb00"/>
  <path id="Path_12046" data-name="Path 12046" d="M275.721,208.176a14.667,14.667,0,0,1-5.23,14.183h0l-4.186-.214-.592-3.7a8.745,8.745,0,0,0,3.762-4.465h-7.846v-5.8h14.093Z" transform="translate(-246.633 -196.245)" fill="#518ef8"/>
  <path id="Path_12047" data-name="Path 12047" d="M52.617,317.789h0A14.677,14.677,0,0,1,30.509,313.3l4.755-3.892a8.726,8.726,0,0,0,12.575,4.468Z" transform="translate(-28.76 -291.676)" fill="#28b446"/>
  <path id="Path_12048" data-name="Path 12048" d="M51.021,3.378,46.268,7.269A8.725,8.725,0,0,0,33.4,11.838l-4.78-3.913h0a14.675,14.675,0,0,1,22.4-4.547Z" transform="translate(-26.983)" fill="#f14336"/>
</svg>
