<svg xmlns="http://www.w3.org/2000/svg" width="63" height="63" viewBox="0 0 63 63">
  <g id="Group_179197" data-name="Group 179197" transform="translate(-494 -3906)">
    <circle id="Ellipse_859" data-name="Ellipse 859" cx="31.5" cy="31.5" r="31.5" transform="translate(494 3906)" fill="#75b72a"/>
    <g id="call-2021585" transform="translate(513 3921.539)">
      <path id="Path_41013" data-name="Path 41013" d="M41.416,20.9a.663.663,0,0,1-.665.665,1.372,1.372,0,0,0-1.37,1.37.665.665,0,1,1-1.33,0,2.7,2.7,0,0,1,2.7-2.7A.667.667,0,0,1,41.416,20.9ZM30.589,23.6a.663.663,0,0,1-.665-.665A10.836,10.836,0,0,1,40.751,12.11a.665.665,0,1,1,0,1.33,9.507,9.507,0,0,0-9.5,9.5A.667.667,0,0,1,30.589,23.6Z" transform="translate(-25.854 -8.047)" fill="#fff"/>
      <path id="Path_41014" data-name="Path 41014" d="M16.139,20.89a.665.665,0,1,1-1.33,0,6.769,6.769,0,0,1,6.763-6.763.665.665,0,1,1,0,1.33A5.439,5.439,0,0,0,16.139,20.89ZM21.572,6a.665.665,0,0,1,0,1.33A13.579,13.579,0,0,0,8.005,20.89a.665.665,0,1,1-1.33,0A14.909,14.909,0,0,1,21.572,6Zm-6.5,21.9.871.472a3.833,3.833,0,0,0,4.522-.658l7.023-7.023a3.842,3.842,0,0,0,.658-4.529l-.472-.865a5.123,5.123,0,0,1-.565-3.192A5.127,5.127,0,0,1,32.2,7.7a5.12,5.12,0,0,1,3.644,1.5l.339.346c1.8,1.8,2,4.888.585,8.719A32.31,32.31,0,0,1,29.2,29.422c-5.393,5.393-11.4,8.5-15.708,8.5a5.7,5.7,0,0,1-4.17-1.51l-.346-.346a5.147,5.147,0,0,1-1.51-3.644A5.151,5.151,0,0,1,15.075,27.9Z" transform="translate(-6.675 -6)" fill="#fff"/>
    </g>
  </g>
</svg>
