<svg xmlns="http://www.w3.org/2000/svg" xmlns:xlink="http://www.w3.org/1999/xlink" width="24.68" height="24.608" viewBox="0 0 24.68 24.608">
  <defs>
    <linearGradient id="linear-gradient" y1="0.5" x2="1" y2="0.5" gradientUnits="objectBoundingBox">
      <stop offset="0" stop-color="#d2deff" stop-opacity="0"/>
      <stop offset="1" stop-color="#b7c5ff"/>
    </linearGradient>
  </defs>
  <g id="select" transform="translate(0.001 -0.746)">
    <g id="Group_179050" data-name="Group 179050" transform="translate(-0.001 0.746)">
      <path id="Path_62307" data-name="Path 62307" d="M21.778,2.829C14.038-1.889,1.99,2.414.588,5.815c-1.876,4.55,1.281,5.328,1.868,9.056.471,2.992-2.467,5.856-.79,8.5,1.826,2.876,7.88,2.154,10.181.793,4.212-2.491,2.088-5.4,4.082-9.028,1.9-3.457,5.6-2.055,7.759-4.82,2.049-2.628.69-5.9-1.909-7.484Z" transform="translate(0.001 -0.746)" fill="url(#linear-gradient)"/>
    </g>
    <g id="Group_179065" data-name="Group 179065" transform="translate(2.02 1.833)">
      <g id="Group_179063" data-name="Group 179063" transform="translate(0 1.076)">
        <g id="Group_179051" data-name="Group 179051" transform="translate(0.241 1.205)" opacity="0.2">
          <path id="Path_62308" data-name="Path 62308" d="M157.6,154.445l-8.838-7.152a.242.242,0,0,0-.392.226l1.775,11.23a.242.242,0,0,0,.427.115l2.639-3.241a.242.242,0,0,1,.149-.086l4.126-.665A.243.243,0,0,0,157.6,154.445Z" transform="translate(-143.475 -143.545)" fill="#6583fe"/>
          <path id="Path_62309" data-name="Path 62309" d="M65.787,72.366a.241.241,0,0,0,.241-.241V70.856a.241.241,0,0,0-.241-.241H64.518a.241.241,0,0,0-.241.241v.394H57.352v-.394a.241.241,0,0,0-.241-.241H55.842a.241.241,0,0,0-.241.241v.394H48.676v-.394a.241.241,0,0,0-.241-.241H47.166a.241.241,0,0,0-.241.241v1.269a.241.241,0,0,0,.241.241h.394v6.924h-.394a.241.241,0,0,0-.241.241V80.8a.241.241,0,0,0,.241.241h.394v6.924h-.394a.241.241,0,0,0-.241.241v1.269a.241.241,0,0,0,.241.241h1.269a.241.241,0,0,0,.241-.241v-.394H55.6v.394a.241.241,0,0,0,.241.241h1.269a.241.241,0,0,0,.241-.241v-.394h6.924v.394a.241.241,0,0,0,.241.241h1.269a.241.241,0,0,0,.241-.241V88.208a.241.241,0,0,0-.241-.241h-.394V81.042h.394a.241.241,0,0,0,.241-.241V79.532a.241.241,0,0,0-.241-.241h-.394V72.366Zm-.876,6.924h-.394a.241.241,0,0,0-.241.241V80.8a.241.241,0,0,0,.241.241h.394v6.924h-.394a.241.241,0,0,0-.241.241V88.6H57.352v-.394a.241.241,0,0,0-.241-.241H55.842a.241.241,0,0,0-.241.241V88.6H48.676v-.394a.241.241,0,0,0-.241-.241h-.394V81.042h.394a.241.241,0,0,0,.241-.241V79.532a.241.241,0,0,0-.241-.241h-.394V72.366h.394a.241.241,0,0,0,.241-.241v-.394H55.6v.394a.241.241,0,0,0,.241.241h1.269a.241.241,0,0,0,.241-.241v-.394h6.924v.394a.241.241,0,0,0,.241.241h.394v6.924Z" transform="translate(-46.925 -70.615)" fill="#6583fe"/>
          <path id="Path_62310" data-name="Path 62310" d="M298.521,199.9h-4.244a.241.241,0,0,0,0,.482h4.244a.241.241,0,1,0,0-.482Z" transform="translate(-282.124 -193.665)" fill="#6583fe"/>
          <path id="Path_62311" data-name="Path 62311" d="M357.257,121.62a.241.241,0,0,0,.241-.241.319.319,0,1,1,.638,0,.241.241,0,1,0,.482,0,.8.8,0,0,1,0-1.12,1.369,1.369,0,0,0-1.6,1.12A.241.241,0,0,0,357.257,121.62Zm.56-1.679a.319.319,0,1,1-.319.319A.319.319,0,0,1,357.817,119.941Z" transform="translate(-342.068 -117.105)" fill="#6583fe"/>
        </g>
        <g id="Group_179052" data-name="Group 179052" transform="translate(5.131 3.935)">
          <path id="Path_62312" data-name="Path 62312" d="M148.367,127.52l1.775,11.23a.242.242,0,0,0,.427.115l2.639-3.241a.242.242,0,0,1,.149-.086l4.126-.665a.242.242,0,0,0,.114-.428l-8.838-7.152A.242.242,0,0,0,148.367,127.52Z" transform="translate(-148.363 -127.239)" fill="#01eca5"/>
          <path id="Path_62313" data-name="Path 62313" d="M148.367,127.52l1.775,11.23a.242.242,0,0,0,.427.115l2.639-3.241a.242.242,0,0,1,.149-.086l4.126-.665a.242.242,0,0,0,.114-.428l-8.838-7.152A.242.242,0,0,0,148.367,127.52Z" transform="translate(-148.363 -127.239)" fill="#fff"/>
          <path id="Path_62314" data-name="Path 62314" d="M205.237,218.5l-2.4.387a.24.24,0,0,0-.149.086l-1.441,1.771-.894-5.654a.242.242,0,0,1,.392-.227Z" transform="translate(-197.842 -210.588)" fill="#6583fe"/>
        </g>
        <g id="Group_179053" data-name="Group 179053" transform="translate(0.241 0.241)">
          <path id="Path_62315" data-name="Path 62315" d="M48.435,52.366H47.166a.241.241,0,0,1-.241-.241V50.856a.241.241,0,0,1,.241-.241h1.269a.241.241,0,0,1,.241.241v1.269A.241.241,0,0,1,48.435,52.366Z" transform="translate(-46.925 -50.615)" fill="#fff"/>
          <path id="Path_62316" data-name="Path 62316" d="M228.419,52.366H227.15a.241.241,0,0,1-.241-.241V50.856a.241.241,0,0,1,.241-.241h1.269a.241.241,0,0,1,.241.241v1.269A.241.241,0,0,1,228.419,52.366Z" transform="translate(-218.233 -50.615)" fill="#fff"/>
          <path id="Path_62317" data-name="Path 62317" d="M408.4,52.366h-1.269a.241.241,0,0,1-.241-.241V50.856a.241.241,0,0,1,.241-.241H408.4a.241.241,0,0,1,.241.241v1.269A.241.241,0,0,1,408.4,52.366Z" transform="translate(-389.541 -50.615)" fill="#fff"/>
        </g>
        <g id="Group_179054" data-name="Group 179054" transform="translate(0.241 17.593)">
          <path id="Path_62318" data-name="Path 62318" d="M48.435,412.334H47.166a.241.241,0,0,1-.241-.241v-1.269a.241.241,0,0,1,.241-.241h1.269a.241.241,0,0,1,.241.241v1.269A.241.241,0,0,1,48.435,412.334Z" transform="translate(-46.925 -410.583)" fill="#fff"/>
          <path id="Path_62319" data-name="Path 62319" d="M228.419,412.334H227.15a.241.241,0,0,1-.241-.241v-1.269a.241.241,0,0,1,.241-.241h1.269a.241.241,0,0,1,.241.241v1.269A.241.241,0,0,1,228.419,412.334Z" transform="translate(-218.233 -410.583)" fill="#fff"/>
          <path id="Path_62320" data-name="Path 62320" d="M408.4,412.334h-1.269a.241.241,0,0,1-.241-.241v-1.269a.241.241,0,0,1,.241-.241H408.4a.241.241,0,0,1,.241.241v1.269A.241.241,0,0,1,408.4,412.334Z" transform="translate(-389.541 -410.583)" fill="#fff"/>
        </g>
        <g id="Group_179055" data-name="Group 179055" transform="translate(17.593 8.917)">
          <path id="Path_62321" data-name="Path 62321" d="M406.893,232.109V230.84a.241.241,0,0,1,.241-.241H408.4a.241.241,0,0,1,.241.241v1.269a.241.241,0,0,1-.241.241h-1.269A.241.241,0,0,1,406.893,232.109Z" transform="translate(-406.893 -230.599)" fill="#fff"/>
        </g>
        <g id="Group_179056" data-name="Group 179056" transform="translate(0.241 8.917)">
          <path id="Path_62322" data-name="Path 62322" d="M46.925,232.109V230.84a.241.241,0,0,1,.241-.241h1.269a.241.241,0,0,1,.241.241v1.269a.241.241,0,0,1-.241.241H47.166A.241.241,0,0,1,46.925,232.109Z" transform="translate(-46.925 -230.599)" fill="#fff"/>
        </g>
        <g id="Group_179057" data-name="Group 179057">
          <path id="Path_62323" data-name="Path 62323" d="M149.605,127.38a.241.241,0,0,0,.3-.375l-5.756-4.658a.483.483,0,0,0-.782.451l1.775,11.23a.478.478,0,0,0,.352.391.494.494,0,0,0,.129.017.477.477,0,0,0,.372-.179l.669-.821a.241.241,0,1,0-.374-.3l-.671.82-1.776-11.23s0,0,0,0Z" transform="translate(-138.475 -118.545)" fill="#2626bc"/>
          <path id="Path_62324" data-name="Path 62324" d="M230.007,242.869,228.2,241.4a.241.241,0,0,0-.3.375l1.81,1.468-4.126.665a.483.483,0,0,0-.3.172l-.943,1.159a.241.241,0,1,0,.374.3l.944-1.159,4.126-.665a.483.483,0,0,0,.227-.853Z" transform="translate(-215.491 -231.916)" fill="#2626bc"/>
          <path id="Path_62325" data-name="Path 62325" d="M61.028,47.848a.483.483,0,0,0,.482-.482V46.1a.483.483,0,0,0-.482-.482H59.759a.483.483,0,0,0-.482.482v.394H52.834V46.1a.483.483,0,0,0-.482-.482H51.083a.483.483,0,0,0-.482.482v.394H44.158V46.1a.483.483,0,0,0-.482-.482H42.407a.483.483,0,0,0-.482.482v1.269a.483.483,0,0,0,.482.482H42.8v6.442h-.394a.483.483,0,0,0-.482.482v1.269a.483.483,0,0,0,.482.482H42.8v6.442h-.394a.483.483,0,0,0-.482.482v1.269a.483.483,0,0,0,.482.482h1.269a.483.483,0,0,0,.482-.482v-.394H50.6v.394a.483.483,0,0,0,.482.482h1.269a.483.483,0,0,0,.482-.482v-.394h6.442v.394a.483.483,0,0,0,.482.482h1.269a.483.483,0,0,0,.482-.482V63.449a.483.483,0,0,0-.482-.482h-.394V56.524h.394a.483.483,0,0,0,.482-.482V54.773a.483.483,0,0,0-.482-.482h-.394V47.848ZM59.759,46.1h1.269v1.269h-1.27Zm-8.676,0h1.269v1.269h-1.27Zm-8.676,0h1.269v1.269h-1.27Zm0,8.676h1.269v1.269H42.407Zm0,9.945V63.449h1.269v1.269Zm8.676,0V63.449h1.269v1.269Zm9.946,0h-1.27v-.537a.237.237,0,0,0,0-.2v-.537h1.269Zm0-8.676H59.759v-1.27h1.269Zm-.876-1.751h-.394a.483.483,0,0,0-.482.482v1.269a.483.483,0,0,0,.482.482h.394v6.442h-.394a.483.483,0,0,0-.482.482v.394H52.834v-.394a.483.483,0,0,0-.482-.482H51.083a.483.483,0,0,0-.482.482v.394H44.158v-.394a.483.483,0,0,0-.482-.482h-.394V56.524h.394a.483.483,0,0,0,.482-.482V54.773a.483.483,0,0,0-.482-.482h-.394V47.848h.394a.483.483,0,0,0,.482-.482v-.394H50.6v.394a.483.483,0,0,0,.482.482h1.269a.483.483,0,0,0,.482-.482v-.394h6.442v.394a.483.483,0,0,0,.482.482h.394v6.442Z" transform="translate(-41.925 -45.615)" fill="#2626bc"/>
        </g>
        <g id="Group_179062" data-name="Group 179062" transform="translate(12.154 2.592)">
          <g id="Group_179061" data-name="Group 179061" transform="translate(0 2.849)">
            <g id="Group_179058" data-name="Group 179058" transform="translate(3.689)">
              <path id="Path_62326" data-name="Path 62326" d="M371.384,158.969h-.555a.241.241,0,0,1,0-.482h.555a.241.241,0,0,1,0,.482Z" transform="translate(-370.588 -158.487)" fill="#2626bc"/>
            </g>
            <g id="Group_179059" data-name="Group 179059" transform="translate(0)">
              <path id="Path_62327" data-name="Path 62327" d="M297.021,158.969H294.3a.241.241,0,1,1,0-.482h2.724a.241.241,0,1,1,0,.482Z" transform="translate(-294.055 -158.487)" fill="#2626bc"/>
            </g>
            <g id="Group_179060" data-name="Group 179060" transform="translate(0 1.028)">
              <path id="Path_62328" data-name="Path 62328" d="M298.54,180.3H294.3a.241.241,0,0,1,0-.482h4.244a.241.241,0,1,1,0,.482Z" transform="translate(-294.055 -179.82)" fill="#2626bc"/>
            </g>
          </g>
          <path id="Path_62329" data-name="Path 62329" d="M358.638,100.182a.8.8,0,1,0-1.372.56.8.8,0,0,0-.229.56.241.241,0,0,0,.482,0,.319.319,0,1,1,.638,0,.241.241,0,0,0,.482,0,.8.8,0,0,0-.229-.56A.8.8,0,0,0,358.638,100.182Zm-.8-.319a.319.319,0,1,1-.319.319A.319.319,0,0,1,357.837,99.863Z" transform="translate(-354 -99.381)" fill="#2626bc"/>
        </g>
      </g>
      <g id="Group_179064" data-name="Group 179064" transform="translate(3.169)">
        <path id="Path_62330" data-name="Path 62330" d="M334.327,333.4a.241.241,0,0,1-.241-.241.29.29,0,0,0-.289-.289.241.241,0,0,1,0-.482.29.29,0,0,0,.289-.289.241.241,0,0,1,.482,0,.29.29,0,0,0,.289.289.241.241,0,1,1,0,.482.29.29,0,0,0-.289.289A.241.241,0,0,1,334.327,333.4Z" transform="translate(-322.667 -316.98)" fill="#6583fe"/>
        <path id="Path_62331" data-name="Path 62331" d="M289.827,458.241a.241.241,0,0,1-.241-.241.29.29,0,0,0-.289-.289.241.241,0,1,1,0-.482.29.29,0,0,0,.289-.289.241.241,0,1,1,.482,0,.29.29,0,0,0,.289.289.241.241,0,1,1,0,.482.29.29,0,0,0-.289.289A.241.241,0,0,1,289.827,458.241Z" transform="translate(-280.312 -435.807)" fill="#6583fe"/>
        <path id="Path_62332" data-name="Path 62332" d="M117.9,24.267a.241.241,0,0,1-.17-.411l.482-.482a.241.241,0,1,1,.341.341l-.482.482A.24.24,0,0,1,117.9,24.267Z" transform="translate(-117.176 -23.303)" fill="#6583fe"/>
        <path id="Path_62333" data-name="Path 62333" d="M450.316,298.452a.241.241,0,0,1-.17-.411l.482-.482a.241.241,0,0,1,.341.341l-.482.482A.24.24,0,0,1,450.316,298.452Z" transform="translate(-433.569 -284.271)" fill="#6583fe"/>
        <path id="Path_62334" data-name="Path 62334" d="M107.9,282.452a.241.241,0,0,1-.17-.411l.482-.482a.241.241,0,0,1,.341.341l-.482.482A.24.24,0,0,1,107.9,282.452Z" transform="translate(-107.658 -269.043)" fill="#6583fe"/>
      </g>
    </g>
  </g>
</svg>
