<svg id="Group_175609" data-name="Group 175609" xmlns="http://www.w3.org/2000/svg" xmlns:xlink="http://www.w3.org/1999/xlink" width="29.344" height="29.344" viewBox="0 0 29.344 29.344">
  <defs>
    <clipPath id="clip-path">
      <circle id="Ellipse_599" data-name="Ellipse 599" cx="14.672" cy="14.672" r="14.672" transform="translate(0 0)" fill="none"/>
    </clipPath>
    <radialGradient id="radial-gradient" cx="0.5" cy="0.5" r="0.5" gradientUnits="objectBoundingBox">
      <stop offset="0" stop-color="#ffd676"/>
      <stop offset="0.25" stop-color="#f2a454"/>
      <stop offset="0.38" stop-color="#f05c3c"/>
      <stop offset="0.7" stop-color="#c22f86"/>
      <stop offset="0.96" stop-color="#6666ad"/>
      <stop offset="0.99" stop-color="#5c6cb2"/>
    </radialGradient>
  </defs>
  <g id="Group_175608" data-name="Group 175608" transform="translate(0)" clip-path="url(#clip-path)">
    <circle id="Ellipse_598" data-name="Ellipse 598" cx="30.567" cy="30.567" r="30.567" transform="translate(-24.454 -3.668)" fill="url(#radial-gradient)"/>
  </g>
  <circle id="Ellipse_607" data-name="Ellipse 607" cx="1.223" cy="1.223" r="1.223" transform="translate(19.563 8.559)" fill="#fff"/>
  <path id="Path_12052" data-name="Path 12052" d="M52.544,48a4.544,4.544,0,1,0,4.544,4.544A4.544,4.544,0,0,0,52.544,48Zm0,6.817a2.272,2.272,0,1,1,2.272-2.272A2.272,2.272,0,0,1,52.544,54.817Z" transform="translate(-37.26 -37.872)" fill="#fff"/>
  <rect id="Rectangle_162147" data-name="Rectangle 162147" width="18.34" height="17.118" rx="4" transform="translate(6.113 6.113)" fill="none" stroke="#fff" stroke-miterlimit="10" stroke-width="1"/>
</svg>
