<svg id="SvgjsG1016" xmlns="http://www.w3.org/2000/svg" xmlns:xlink="http://www.w3.org/1999/xlink" width="29.344" height="29.344" viewBox="0 0 29.344 29.344">
  <defs>
    <linearGradient id="linear-gradient" x1="-1.971" y1="2.61" x2="-1.264" y2="3.317" gradientUnits="objectBoundingBox">
      <stop offset="0" stop-color="#2489be"/>
      <stop offset="1" stop-color="#0575b3"/>
    </linearGradient>
  </defs>
  <g id="Group_175610" data-name="Group 175610" transform="translate(0 0)">
    <path id="Path_12053" data-name="Path 12053" d="M21.7,7.025A14.672,14.672,0,1,0,36.369,21.7,14.672,14.672,0,0,0,21.7,7.025ZM17.783,28.791H14.561V18.383h3.221ZM16.157,17.02a1.92,1.92,0,1,1,1.9-1.92A1.913,1.913,0,0,1,16.157,17.02Zm13.7,11.77H26.649V23.327c0-1.5-.569-2.335-1.754-2.335-1.289,0-1.963.871-1.963,2.335v5.463h-3.09V18.383h3.09v1.4a3.63,3.63,0,0,1,3.136-1.719c2.207,0,3.787,1.348,3.787,4.135v6.59Z" transform="translate(-7.025 -7.025)" fill="url(#linear-gradient)"/>
  </g>
</svg>
