<svg xmlns="http://www.w3.org/2000/svg" width="22.884" height="22.884" viewBox="0 0 22.884 22.884">
  <g id="Group_179220" data-name="Group 179220" transform="translate(0.307 0.307)">
    <g id="Group_188224" data-name="Group 188224" transform="translate(1.198 1.198)">
      <circle id="Ellipse_1172" data-name="Ellipse 1172" cx="7.11" cy="7.11" r="7.11" transform="translate(0 8.403) rotate(-36.221)" fill="#e4e4e4"/>
      <g id="Group_188223" data-name="Group 188223" transform="translate(3.315 4.235)">
        <path id="Path_62792" data-name="Path 62792" d="M232.025,142.019l.767-.241-.018-.308-1.646.1a.409.409,0,0,0-.234.091l-.749.611a.215.215,0,0,1-.35-.157l-.01-.209a.254.254,0,0,0-.268-.241l-.041,0a.98.98,0,0,0-.675.327l-.148.167a.245.245,0,0,1-.346.021l-.367-.319a7.114,7.114,0,0,0-1.77,2.609l.521,1.272a.618.618,0,0,0,.61.387l.084,0,.228.539a1.423,1.423,0,0,0,1.085.851l1.184.19-.121.449.036.617a.618.618,0,0,0,.276.479l.773.512a.618.618,0,0,1,.276.479l.048.823a2.455,2.455,0,0,0,.25.943l.4.8a.3.3,0,0,0,.279.166h0a.3.3,0,0,0,.287-.316l-.054-.919.487-.367a.737.737,0,0,0,.276-.434l.13-.61a.309.309,0,0,1,.28-.228l.154-.009a.309.309,0,0,0,.286-.251l.114-.606a.736.736,0,0,0-.234-.686l-.115-.1a.736.736,0,0,0-.532-.185l-.11.006a.489.489,0,0,1-.355-.123l-.776-.689a3.8,3.8,0,0,0-1-.3l-1.819-.292a.344.344,0,0,1-.29-.319h0a.737.737,0,0,1,.691-.78l.152-.009-.012.252a.356.356,0,0,0,.71.033l.036-.778,1.479-1.808a.246.246,0,0,1,.169-.082l.369-.022a.245.245,0,0,0,.208-.142l.063-.136a.245.245,0,0,0-.1-.315l-.616-.358A.208.208,0,0,1,232.025,142.019Z" transform="translate(-226.17 -141.343)" fill="#ed1b24"/>
        <path id="Path_62793" data-name="Path 62793" d="M262.721,155.171a7.091,7.091,0,0,0-.413-2.322l-.47.037a.736.736,0,0,0-.4.147l-.168.128a.711.711,0,0,1-.758.063l-.507-.265a1.474,1.474,0,0,0-.768-.165l-.565.033a.736.736,0,0,0-.655.5l-.174.521a1.417,1.417,0,0,0,.562,1.629l.038.025a1.414,1.414,0,0,0,.865.233h.018a.736.736,0,0,1,.778.691l.048.822a1.959,1.959,0,0,0,.2.762l.436.872a.975.975,0,0,0,.641.408A7.071,7.071,0,0,0,262.721,155.171Z" transform="translate(-248.989 -149.519)" fill="#ed1b24"/>
        <path id="Path_62794" data-name="Path 62794" d="M262.817,143.407a7.13,7.13,0,0,0-2.055-2.393l-.427.43a.308.308,0,0,0-.077.223l.031.52a.673.673,0,0,1-.421.664l-.488.16a.491.491,0,0,0-.337.495l.021.357a.49.49,0,0,0,.518.46l.42-.025a.49.49,0,0,0,.428-.312l.238-.614Z" transform="translate(-249.906 -141.014)" fill="#ed1b24"/>
      </g>
      <path id="Path_62795" data-name="Path 62795" d="M234.672,149.006a7.1,7.1,0,0,1-6.687-9.646,7.107,7.107,0,1,0,10.177,8.7A7.074,7.074,0,0,1,234.672,149.006Z" transform="translate(-221.588 -135.585)" fill="#ed1b24" opacity="0.1"/>
    </g>
    <g id="Group_188225" data-name="Group 188225" transform="translate(0 0)">
      <circle id="Ellipse_1173" data-name="Ellipse 1173" cx="9.089" cy="9.089" r="9.089" transform="translate(0 17.557) rotate(-74.971)" fill="none" stroke="#bebebe" stroke-miterlimit="10" stroke-width="0.5" stroke-dasharray="2 5"/>
    </g>
  </g>
</svg>
