<svg xmlns="http://www.w3.org/2000/svg" width="47" height="47" viewBox="0 0 47 47">
  <g id="SvgjsG1015" transform="translate(-1.905 -2.001)">
    <g id="Group_178987" data-name="Group 178987" transform="translate(1.905 2.001)">
      <path id="Path_41031" data-name="Path 41031" d="M30.216,27.463a6.263,6.263,0,1,1-1.111-1.111l4.99-4.982a13.337,13.337,0,1,0,1.1,1.1Z" transform="translate(-4.082 -5.487)" fill="#fff"/>
      <path id="Path_41032" data-name="Path 41032" d="M37.956,29.117a14.877,14.877,0,1,1-4.927-11.043l4.427-4.419a21.154,21.154,0,1,0,1.1,1.1L34.14,19.184a14.81,14.81,0,0,1,3.817,9.933Z" transform="translate(-1.905 -3.308)" fill="#fff"/>
      <path id="Path_41033" data-name="Path 41033" d="M30.4,23.985A4.7,4.7,0,1,0,31.513,25.1l-3.269,3.269a.785.785,0,1,1-1.111-1.111Zm16.69-11.176a.667.667,0,0,0,.242.047.782.782,0,0,0,.555-.235l5.381-5.373a.8.8,0,0,0,.188-.806.771.771,0,0,0-.634-.524l-2.839-.407-.407-2.839a.771.771,0,0,0-.524-.634.8.8,0,0,0-.806.188L42.877,7.608a.774.774,0,0,0-.188.8l.821,2.471-1.463,1.47q.575.528,1.1,1.1l1.47-1.463Z" transform="translate(-6.497 -2.001)" fill="#fff"/>
    </g>
  </g>
</svg>
