<svg id="SvgjsG1014" xmlns="http://www.w3.org/2000/svg" width="29.344" height="29.344" viewBox="0 0 29.344 29.344">
  <g id="Layer_1" data-name="Layer 1" transform="translate(0 0)">
    <circle id="Ellipse_608" data-name="Ellipse 608" cx="14.672" cy="14.672" r="14.672" fill="#38a8e0"/>
    <path id="Path_12056" data-name="Path 12056" d="M44.845,39.073a6.5,6.5,0,0,1-1.867.512,3.26,3.26,0,0,0,1.428-1.8,6.508,6.508,0,0,1-2.064.788A3.253,3.253,0,0,0,36.8,41.538a9.229,9.229,0,0,1-6.7-3.4,3.255,3.255,0,0,0,1.005,4.339,3.237,3.237,0,0,1-1.471-.407v.041A3.253,3.253,0,0,0,32.244,45.3a3.257,3.257,0,0,1-1.469.057,3.255,3.255,0,0,0,3.038,2.248A6.521,6.521,0,0,1,29.774,49,6.6,6.6,0,0,1,29,48.967a9.243,9.243,0,0,0,14.229-7.789v-.421A6.605,6.605,0,0,0,44.845,39.073Z" transform="translate(-22.25 -28.862)" fill="#fff"/>
  </g>
</svg>
